<svg width="865" height="199" viewBox="0 0 865 199" fill="none" xmlns="http://www.w3.org/2000/svg">
<path fill-rule="evenodd" clip-rule="evenodd" d="M858.678 152.636C858.678 166.733 793.112 178.162 712.229 178.162C631.347 178.162 565.78 166.733 565.78 152.636C565.78 138.538 631.347 127.11 712.229 127.11C793.112 127.11 858.678 138.538 858.678 152.636Z" fill="#B1B3B0"/>
<path fill-rule="evenodd" clip-rule="evenodd" d="M838.66 11.4308C834.194 41.0754 814.455 67.6128 802.709 81.155C797.477 87.1882 793.83 90.644 793.83 90.644L584.744 27.8814L622.76 1.04187C622.76 1.04187 693.548 20.9341 795.817 15.2277C802.641 14.8473 809.61 14.353 816.704 13.7309C823.895 13.0981 831.218 12.3372 838.66 11.4308Z" fill="#F6EC5A"/>
<path fill-rule="evenodd" clip-rule="evenodd" d="M838.66 11.4607C834.194 41.0941 814.455 67.6214 802.709 81.1585C797.477 87.1895 793.83 90.6439 793.83 90.6439L584.744 27.9051L591.715 22.9861C744.936 52.7274 790.243 16.358 790.243 16.358L795.817 15.2562C802.641 14.8759 809.61 14.3818 816.704 13.76C823.895 13.1273 831.218 12.3668 838.66 11.4607Z" fill="#F5D84A"/>
<path fill-rule="evenodd" clip-rule="evenodd" d="M838.66 11.4607C834.196 41.0299 814.465 67.4997 802.724 81.0074C799.594 81.8374 797.626 82.3089 797.432 82.3089C797.078 82.3089 776.798 80.7098 750.014 77.3438L618.92 38.0757C618.49 36.7385 618.353 35.3663 618.543 33.9618C703.388 43.4164 752.861 42.7073 779.626 36.799C806.395 30.8873 814.282 15.0459 814.282 15.0459L816.712 13.755C823.901 13.1237 831.221 12.3648 838.66 11.4607Z" fill="#F5CB34"/>
<path fill-rule="evenodd" clip-rule="evenodd" d="M623.835 7.47754C623.835 7.47754 711.235 28.4006 834.835 13.6916C835.337 11.4723 838.322 13.7622 838.66 11.5031C713.854 26.8184 622.76 1.04187 622.76 1.04187L584.744 28.0664L591.851 30.2146L623.835 7.47754Z" fill="#FFFFFE"/>
<path fill-rule="evenodd" clip-rule="evenodd" d="M588.342 27.5098L794.051 88.6832C796.294 86.4866 804.574 78.1262 813.333 66.0642C822.461 53.4949 833.946 34.2863 837.61 13.3396C811.849 16.3733 785.574 17.9106 759.479 17.9106C682.993 17.9106 629.974 4.65508 623.465 2.94655L588.342 27.5098ZM794.45 91.6859C794.311 91.6859 794.171 91.6664 794.034 91.6253L584.71 29.3768C584.187 29.221 583.797 28.7859 583.71 28.2549C583.621 27.7241 583.847 27.1902 584.294 26.878L622.353 0.261475C622.707 0.0132476 623.158 -0.0630722 623.577 0.0532912C624.117 0.203885 678.566 15.0899 759.479 15.0899C786.097 15.0899 812.903 13.483 839.155 10.3135C839.6 10.2608 840.047 10.414 840.359 10.7292C840.672 11.045 840.818 11.4861 840.752 11.9219C837.37 34.1534 825.228 54.5531 815.636 67.7515C805.265 82.0228 795.54 91.2039 795.442 91.2948C795.172 91.5495 794.814 91.6859 794.45 91.6859Z" fill="#967230"/>
<path fill-rule="evenodd" clip-rule="evenodd" d="M810.925 40.008L839.411 11.4607C839.411 11.4607 855.79 75.4765 843.683 136.897C810.213 154.199 810.213 154.199 810.213 154.199L810.925 40.008Z" fill="#F5D84A"/>
<path fill-rule="evenodd" clip-rule="evenodd" d="M839.411 11.4607L832.407 18.4792C836.179 36.5663 844.877 87.6602 835.138 137.075C822.92 143.391 815.165 147.399 810.24 149.945L810.213 154.199C810.213 154.199 810.213 154.199 843.683 136.897C855.79 75.4765 839.411 11.4607 839.411 11.4607Z" fill="#F5CB34"/>
<path fill-rule="evenodd" clip-rule="evenodd" d="M811.692 40.8189L810.993 151.496L842.008 135.675C848.121 104.518 846.628 72.7474 844.286 51.5159C842.307 33.5752 839.407 19.9569 838.176 14.6299L811.692 40.8189ZM809.542 155.241C809.281 155.241 809.022 155.171 808.792 155.034C808.364 154.775 808.103 154.313 808.106 153.819L808.824 40.2228C808.826 39.8518 808.976 39.497 809.243 39.2341L837.96 10.8351C838.325 10.4745 838.857 10.3346 839.356 10.4691C839.855 10.603 840.24 10.9902 840.368 11.4829C840.41 11.6431 844.551 27.7713 847.135 51.1585C849.521 72.7505 851.034 105.151 844.694 136.888C844.61 137.311 844.333 137.674 843.945 137.871L810.202 155.083C809.994 155.189 809.768 155.241 809.542 155.241Z" fill="#967230"/>
<path fill-rule="evenodd" clip-rule="evenodd" d="M808.942 154.564C755.242 167.18 692.372 162.651 645.867 155.807C606.501 150.012 578.855 142.557 578.426 142.443L578.423 142.441L584.867 28.131C584.867 28.131 590.967 29.798 601.363 32.2075C631.226 39.1341 696.515 52.1959 754.336 49.5172C756.885 49.3975 759.419 49.248 761.932 49.0684C769.275 48.5383 776.466 47.7333 783.41 46.602C792.67 45.1007 801.492 43.0203 809.657 40.2546C809.657 40.2546 816.101 119.058 808.942 154.564Z" fill="#F6EC5A"/>
<path fill-rule="evenodd" clip-rule="evenodd" d="M808.942 154.589C755.243 167.165 692.373 162.652 645.868 155.827C606.501 150.052 578.856 142.621 578.427 142.507L578.423 142.504C742.005 161.968 788.125 48.0941 788.125 48.0941L761.933 49.419C779.075 48.1887 795.369 45.4554 809.658 40.6335C809.658 40.6335 816.101 119.192 808.942 154.589Z" fill="#F5D84A"/>
<path fill-rule="evenodd" clip-rule="evenodd" d="M809.995 154.589C756.291 167.165 693.415 162.652 646.906 155.827C712.503 161.081 787.865 149.616 792.096 145.726C807.263 101.118 793.875 47.1003 793.875 47.1003L755.385 49.8659C775.3 48.9472 794.324 46.1643 810.711 40.6335C810.711 40.6335 817.154 119.192 809.995 154.589Z" fill="#F5CB34"/>
<path fill-rule="evenodd" clip-rule="evenodd" d="M589.388 36.5002C589.388 36.5002 726.857 67.4027 808.24 42.5506C807.847 36.5504 810.213 40.2637 810.213 40.2637C729.482 67.5631 584.882 28.131 584.882 28.131L578.423 142.529C578.423 142.529 580.143 142.994 583.332 143.78L589.388 36.5002Z" fill="#FFFFFE"/>
<path fill-rule="evenodd" clip-rule="evenodd" d="M580.301 141.106C589.897 143.571 659.395 160.746 732.253 160.746C760.567 160.746 786.182 158.162 808.404 153.066C814.588 120.953 809.953 54.2797 809.062 42.4744C790.318 48.4911 766.767 51.5407 739.022 51.5407C671.586 51.5407 598.611 33.4262 586.588 30.3171L580.301 141.106ZM732.253 163.576C653.761 163.576 579.17 143.743 578.426 143.542C577.773 143.368 577.334 142.766 577.369 142.099L583.823 28.4243C583.848 27.9973 584.066 27.6043 584.418 27.3548C584.769 27.105 585.217 27.0264 585.635 27.1393C586.43 27.3549 666.023 48.7111 739.022 48.7111C767.324 48.7111 791.166 45.5184 809.888 39.2205C810.308 39.0797 810.769 39.1379 811.138 39.3768C811.508 39.6162 811.745 40.0104 811.78 40.4451C811.846 41.2307 818.166 119.415 811.04 154.512C810.931 155.055 810.51 155.484 809.965 155.611C787.317 160.896 761.172 163.576 732.253 163.576Z" fill="#967230"/>
<path fill-rule="evenodd" clip-rule="evenodd" d="M728.033 111.482C727.267 113.908 726.427 116.247 725.547 118.485C724.192 121.947 722.726 125.169 721.201 128.129C717.496 135.374 713.48 141.066 710.02 144.805C707.845 147.151 705.89 148.727 704.372 149.427C700.249 151.318 679.414 148.319 668.86 146.636C665.148 146.042 662.71 145.615 662.71 145.615C662.71 145.615 666.356 131.066 664.461 120.041C664.461 120.041 664.713 120.092 665.194 120.173C670.291 121.018 700.995 125.348 728.033 111.482Z" fill="#51545B"/>
<path fill-rule="evenodd" clip-rule="evenodd" d="M664.201 144.777C665.242 144.956 666.98 145.251 669.168 145.608C676.429 146.78 686.702 148.291 694.398 148.808C700.838 149.241 702.912 148.789 703.575 148.481C704.966 147.831 706.828 146.275 708.814 144.101C712.526 140.033 716.383 134.193 719.678 127.658C721.215 124.632 722.642 121.42 723.92 118.106C724.514 116.579 725.071 115.043 725.585 113.522C706.306 122.764 685.494 122.979 674.563 122.244C674.563 122.244 674.563 122.244 674.562 122.244C670.619 121.979 667.635 121.579 665.906 121.308C667.074 130.518 664.959 141.339 664.201 144.777ZM694.258 150.888C686.481 150.364 676.138 148.847 668.834 147.665C665.165 147.067 662.753 146.641 662.753 146.641L661.657 146.447L661.922 145.366C661.959 145.222 665.445 130.892 663.635 120.21L663.379 118.706L664.875 119.017C664.886 119.019 665.12 119.067 665.562 119.142C667.067 119.395 670.258 119.866 674.702 120.165C685.839 120.915 707.428 120.664 726.864 110.553L729.087 109.398L728.341 111.787C727.618 114.114 726.784 116.492 725.866 118.858C724.563 122.235 723.107 125.513 721.539 128.599C718.163 135.294 714.191 141.299 710.357 145.505C708.157 147.913 706.118 149.595 704.458 150.37C703.487 150.821 701.372 151.366 694.258 150.888Z" fill="#51545B"/>
<path fill-rule="evenodd" clip-rule="evenodd" d="M720.658 127.968C717.004 135.266 713.042 141 709.629 144.766C707.484 147.129 705.556 148.717 704.059 149.422C699.992 151.328 679.442 148.306 669.032 146.61C670.351 144.436 671.413 142.728 671.413 142.728C671.413 142.728 681.166 133.655 689.586 132.917C692.962 132.619 694.243 133.674 694.243 133.674C694.243 133.674 707.309 124.28 720.658 127.968Z" fill="#BB393F"/>
<path fill-rule="evenodd" clip-rule="evenodd" d="M715.39 129.896C712.332 135.868 709.017 140.559 706.163 143.641C704.367 145.574 702.755 146.874 701.502 147.45C698.098 149.008 680.902 146.537 672.192 145.149C673.296 143.37 674.185 141.973 674.185 141.973C674.185 141.973 682.347 134.55 689.391 133.944C692.215 133.701 693.289 134.565 693.289 134.565C693.289 134.565 704.22 126.878 715.39 129.896Z" fill="#DE5052"/>
<path fill-rule="evenodd" clip-rule="evenodd" d="M671.376 145.819C678.496 146.957 687.895 148.307 695.06 148.793C701.498 149.229 703.571 148.774 704.233 148.464C705.624 147.809 707.485 146.243 709.47 144.054C712.957 140.205 716.573 134.78 719.731 128.68C718.661 128.451 717.564 128.297 716.451 128.221C705.422 127.474 695.571 134.459 695.474 134.529L694.823 134.998L694.207 134.488C694.203 134.487 693.554 134.04 692.026 133.937C691.495 133.9 690.916 133.91 690.304 133.963C682.787 134.623 673.901 142.465 672.862 143.404C672.664 143.721 672.103 144.624 671.376 145.819ZM694.921 150.886C687.147 150.359 676.809 148.832 669.508 147.642L667.978 147.393L668.784 146.06C670.104 143.88 671.169 142.166 671.169 142.166L671.244 142.049L671.346 141.952C671.754 141.574 681.453 132.636 690.121 131.876C690.841 131.811 691.529 131.8 692.166 131.844C693.416 131.928 694.274 132.201 694.814 132.446C697.129 130.916 706.23 125.427 716.593 126.13C718.285 126.245 719.949 126.525 721.536 126.964L722.765 127.304L722.191 128.449C718.815 135.189 714.845 141.234 711.012 145.468C708.813 147.891 706.775 149.585 705.116 150.366C704.145 150.82 702.032 151.368 694.921 150.886Z" fill="#51545B"/>
<path fill-rule="evenodd" clip-rule="evenodd" d="M710.122 145.551C707.958 148.021 706.017 149.68 704.507 150.416C698.973 153.103 664.817 146.683 664.817 146.683C664.817 146.683 665.844 143.324 667.882 141.696C676.944 142.822 695.609 146.758 710.122 145.551Z" fill="#FFFFFE"/>
<path fill-rule="evenodd" clip-rule="evenodd" d="M665.546 144.824C669.853 145.588 684.155 148.032 694.167 148.722C700.721 149.175 702.859 148.691 703.549 148.361C704.504 147.903 705.676 147.016 706.961 145.786C703.725 145.918 700.16 145.844 696.151 145.567H696.149C688.417 145.035 680.678 143.844 674.459 142.888C671.781 142.477 669.441 142.116 667.493 141.869C666.64 142.676 665.971 143.878 665.546 144.824ZM694.025 150.883C682.055 150.056 664.076 146.757 663.896 146.725L662.71 146.505L663.075 145.33C663.12 145.183 664.237 141.672 666.522 139.879L666.863 139.613L667.291 139.665C669.355 139.915 671.866 140.301 674.774 140.75C680.954 141.698 688.645 142.883 696.29 143.41H696.294C701.372 143.76 705.71 143.778 709.556 143.464L712.229 143.246L710.421 145.27C708.191 147.769 706.124 149.516 704.445 150.322C703.435 150.802 701.262 151.38 694.025 150.883Z" fill="#51545B"/>
<path fill-rule="evenodd" clip-rule="evenodd" d="M726.979 111.482C726.22 113.893 725.391 116.214 724.519 118.437C699.974 131.807 670.914 128.054 668.821 126.302C666.779 124.59 664.915 120.328 664.817 120.113C669.859 120.952 700.233 125.251 726.979 111.482Z" fill="#FFFFFE"/>
<path fill-rule="evenodd" clip-rule="evenodd" d="M667.278 121.428C668.134 123.075 669.177 124.703 670.143 125.515C670.552 125.803 673.307 126.577 678.747 126.942C684.661 127.339 705.321 127.835 724.064 117.705C724.603 116.308 725.114 114.9 725.588 113.499C706.339 122.688 685.56 122.904 674.646 122.17C674.646 122.17 674.646 122.17 674.645 122.169C671.549 121.963 669.045 121.673 667.278 121.428ZM678.606 129.009C674.829 128.755 669.991 128.103 668.796 127.097C666.86 125.465 665.181 121.985 664.548 120.564L663.764 118.804L665.656 119.086C667.163 119.338 670.349 119.806 674.786 120.104C685.906 120.85 707.459 120.601 726.867 110.547L729.087 109.398L728.342 111.775C727.612 114.106 726.779 116.472 725.87 118.805L725.734 119.155L725.401 119.337C706.602 129.639 686.414 129.532 678.606 129.009Z" fill="#51545B"/>
<path fill-rule="evenodd" clip-rule="evenodd" d="M651.121 47.9266C651.26 47.6017 652.16 38.9356 660.04 38.5599C667.194 38.2195 674.3 46.4997 674.3 46.4997C674.3 46.4997 661.075 39.6226 651.121 47.9266Z" fill="#A4B0A8"/>
<path fill-rule="evenodd" clip-rule="evenodd" d="M660.741 39.5473C660.41 39.525 660.079 39.5213 659.76 39.5357C655.581 39.7266 653.467 42.3621 652.404 45.1824C655.822 43.2259 659.795 42.3831 664.251 42.6746C666.286 42.8069 668.153 43.1618 669.73 43.5711C667.338 41.7291 664.054 39.7635 660.741 39.5473ZM647.96 51.0523L649.663 47.2706C649.672 47.2345 649.681 47.1908 649.69 47.1357C650.899 41.1721 654.441 37.7569 659.663 37.5186C660.062 37.5004 660.472 37.5053 660.882 37.5327C668.107 38.003 674.699 45.2476 674.978 45.5573L678.514 49.4874L673.713 47.118C673.672 47.0979 669.447 45.0364 664.11 44.6895C659.11 44.362 654.806 45.6059 651.317 48.3796L647.96 51.0523Z" fill="#51545B"/>
<path fill-rule="evenodd" clip-rule="evenodd" d="M733.301 52.0942C733.267 52.0195 726.31 42.822 724.013 42.725C716.863 42.4284 710.122 50.8038 710.122 50.8038C710.122 50.8038 723.027 43.8025 733.301 52.0942Z" fill="#A4B0A8"/>
<path fill-rule="evenodd" clip-rule="evenodd" d="M724.076 43.6951C720.419 43.5509 716.803 45.7773 714.271 47.8273C716.668 47.1709 719.777 46.635 723.153 46.854C725.269 46.9923 727.27 47.4128 729.145 48.1144C727.115 45.9112 724.906 43.7779 724.076 43.6951ZM705.907 53.7124L709.199 49.8348C709.491 49.4901 716.469 41.3792 724.166 41.6838C727.25 41.8829 734.459 51.1886 734.505 51.2809L736.462 55.2199L732.909 52.5026C730.069 50.3291 726.739 49.1046 723.011 48.8627C716.317 48.4282 710.558 51.3318 710.501 51.3612L705.907 53.7124Z" fill="#51545B"/>
<path fill-rule="evenodd" clip-rule="evenodd" d="M679.568 86.4764C679.531 87.5118 679.378 88.5402 679.184 89.5609C678.973 90.5755 678.739 91.5951 678.413 92.5898C678.266 93.0909 678.084 93.5824 677.903 94.0764L677.634 94.8185L677.314 95.5435C677.095 96.0245 676.905 96.5191 676.639 96.9814C676.387 97.4501 676.149 97.925 675.883 98.39L675.018 99.7482C674.743 100.211 674.375 100.619 674.056 101.057L673.558 101.702C673.381 101.91 673.19 102.106 673.001 102.306C672.619 102.701 672.265 103.12 671.858 103.491L670.592 104.574C670.181 104.946 669.681 105.223 669.225 105.548C668.759 105.861 668.296 106.172 667.775 106.404L666.253 107.15L666.902 105.252C667.147 105.686 667.42 106.143 667.684 106.584C667.959 107.026 668.215 107.479 668.494 107.919L669.321 109.243L670.178 110.544C670.45 110.989 670.766 111.395 671.06 111.821L671.504 112.46C671.648 112.677 671.817 112.863 671.973 113.069L672.446 113.677C672.607 113.873 672.747 114.105 672.927 114.272L673.969 115.366L673.358 115.246C674.29 115.116 675.219 114.97 676.153 114.849C677.087 114.733 678.025 114.619 678.973 114.543C678.107 114.925 677.232 115.268 676.357 115.604C675.478 115.942 674.596 116.255 673.716 116.578L673.414 116.691L673.102 116.459L671.732 115.438C671.489 115.272 671.314 115.068 671.101 114.884L670.49 114.315C670.294 114.121 670.077 113.934 669.897 113.73L669.341 113.124C668.983 112.711 668.597 112.311 668.264 111.883L667.246 110.607L666.284 109.296C665.653 108.411 665.06 107.523 664.478 106.582L663.764 105.424L665.127 104.683C665.55 104.453 665.975 104.234 666.405 104.016C666.845 103.819 667.24 103.543 667.634 103.268C668.026 102.988 668.461 102.771 668.821 102.444L669.941 101.524C670.311 101.213 670.638 100.849 670.99 100.513L671.511 100.001L671.995 99.4468C672.308 99.0713 672.657 98.7235 672.949 98.3244L673.849 97.1481L674.693 95.9207C674.982 95.5154 675.228 95.0807 675.495 94.6585C675.763 94.2333 676.021 93.8028 676.264 93.3634C676.514 92.9259 676.768 92.4905 676.991 92.0377C677.214 91.5846 677.465 91.1418 677.683 90.6843C677.907 90.2287 678.132 89.7717 678.335 89.3051C678.778 88.3816 679.178 87.4389 679.568 86.4764Z" fill="#51545B"/>
<path fill-rule="evenodd" clip-rule="evenodd" d="M676.355 84.2844C675.703 94.0518 669.067 101.552 661.532 101.038C653.996 100.524 648.416 92.1847 649.065 82.4187C649.716 72.6513 656.352 65.1482 663.888 65.6639C671.424 66.1793 677.006 74.5155 676.355 84.2844Z" fill="#FFFFFE"/>
<path fill-rule="evenodd" clip-rule="evenodd" d="M657.198 98.9791C657.198 98.9791 656.987 98.8856 656.589 98.7106C656.391 98.6222 656.15 98.5126 655.875 98.3472C655.599 98.1882 655.26 98.0152 654.935 97.7662C654.251 97.3051 653.466 96.6668 652.673 95.8182C651.892 94.9686 651.08 93.9246 650.385 92.6682C649.684 91.4202 649.078 89.9776 648.656 88.3861C648.231 86.7978 647.978 85.0672 647.96 83.2666L647.961 82.5892L647.963 82.2473L647.991 81.8656C648.024 81.4387 648.061 81.0088 648.096 80.5778C648.227 79.6742 648.353 78.6431 648.623 77.749C648.837 76.8193 649.165 75.9066 649.509 74.9964L650.123 73.6632C650.329 73.2208 650.597 72.8018 650.831 72.3681C651.856 70.6827 653.135 69.116 654.679 67.845C656.204 66.5653 658.003 65.5897 659.886 65.055C660.364 64.9537 660.837 64.85 661.308 64.7481C661.781 64.6728 662.263 64.6506 662.728 64.6131C663.195 64.5678 663.664 64.631 664.119 64.6407L664.462 64.6575L664.545 64.6635L664.588 64.6643L664.663 64.6701L664.68 64.6759L664.83 64.6983C665.029 64.729 665.225 64.7614 665.42 64.7924C667.248 65.1285 668.717 65.8347 669.967 66.6621C671.204 67.4945 672.143 68.4609 672.861 69.3693C673.595 70.271 674.081 71.1482 674.439 71.8738C674.624 72.2361 674.772 72.5635 674.881 72.8591C674.997 73.1485 675.091 73.3968 675.154 73.6019C675.284 74.0091 675.353 74.2264 675.353 74.2264C675.353 74.2264 675.221 74.0396 674.974 73.6897C674.736 73.3376 674.357 72.8394 673.851 72.2407C672.857 71.0468 671.229 69.4609 668.944 68.3537C668.366 68.0987 667.762 67.8514 667.111 67.6942C666.789 67.6027 666.46 67.5373 666.122 67.474C665.778 67.4115 665.5 67.3897 665.137 67.3531C664.94 67.344 664.739 67.3342 664.54 67.3229L664.389 67.3157L664.37 67.3162C664.472 67.3243 664.389 67.3182 664.407 67.3202L664.373 67.3223L664.309 67.326L664.042 67.3415C663.688 67.3758 663.329 67.3493 662.975 67.4259C662.619 67.4999 662.259 67.544 661.902 67.626C661.551 67.729 661.197 67.8351 660.838 67.9403C659.434 68.4554 658.102 69.2872 656.915 70.3421C655.733 71.4052 654.692 72.6825 653.857 74.0923C652.989 75.4886 652.357 77.0336 651.9 78.5988L651.725 79.1853C651.672 79.3799 651.643 79.5684 651.597 79.7597C651.514 80.1491 651.411 80.4984 651.343 80.9185C651.284 81.3468 651.226 81.7748 651.166 82.1966L651.145 82.3561L651.134 82.4365L651.128 82.4755L651.125 82.4962C651.136 82.38 651.126 82.4743 651.128 82.4536L651.105 82.7493L651.057 83.3388C650.957 84.9089 651.021 86.4377 651.229 87.873C651.44 89.3068 651.768 90.6575 652.21 91.8614C652.667 93.0588 653.193 94.1267 653.74 95.0376C654.313 95.9281 654.87 96.6909 655.398 97.2618C655.924 97.8303 656.355 98.2776 656.699 98.5463C657.026 98.8295 657.198 98.9791 657.198 98.9791Z" fill="#51545B"/>
<path fill-rule="evenodd" clip-rule="evenodd" d="M674.264 83.8975C673.851 90.2225 669.996 95.1006 665.651 94.7981C661.307 94.4929 658.119 89.1237 658.532 82.8013C658.943 76.4802 662.8 71.6006 667.143 71.9034C671.488 72.2058 674.675 77.5763 674.264 83.8975Z" fill="#51545B"/>
<path fill-rule="evenodd" clip-rule="evenodd" d="M672.186 78.8372C672.088 80.2736 670.834 81.3583 669.381 81.261C667.93 81.1648 666.833 79.9224 666.93 78.4862C667.028 77.0525 668.283 75.9676 669.736 76.0635C671.187 76.1613 672.284 77.4034 672.186 78.8372Z" fill="#FFFFFE"/>
<path fill-rule="evenodd" clip-rule="evenodd" d="M734.303 86.3666C733.653 96.1341 727.017 103.637 719.48 103.122C711.944 102.606 706.363 94.2699 707.012 84.5025C707.665 74.7349 714.301 67.2332 721.836 67.7475C729.372 68.2631 734.952 76.5982 734.303 86.3666Z" fill="#FFFFFE"/>
<path fill-rule="evenodd" clip-rule="evenodd" d="M705.936 85.296C705.936 85.296 705.931 85.0308 705.917 84.5396C705.916 84.2922 705.911 83.988 705.907 83.6327C705.916 83.2751 705.96 82.8577 706.002 82.3925C706.028 81.9183 706.124 81.4101 706.225 80.8546C706.299 80.2871 706.478 79.7005 706.663 79.0663C706.818 78.4206 707.114 77.7783 707.37 77.0722C707.515 76.7259 707.701 76.3885 707.877 76.0327C707.965 75.8559 708.059 75.6778 708.15 75.4967C708.257 75.3247 708.365 75.1489 708.474 74.9727C708.892 74.2482 709.427 73.5565 709.985 72.8339C710.29 72.494 710.614 72.1577 710.943 71.8142C711.278 71.4782 711.663 71.1749 712.032 70.8471C713.565 69.6062 715.482 68.5348 717.693 68.0391C718.24 67.9051 718.815 67.8517 719.384 67.7663C719.959 67.7233 720.543 67.7328 721.129 67.7225L722.002 67.8095C722.266 67.8423 722.496 67.8473 722.792 67.9032C723.396 68.0449 724.057 68.164 724.621 68.3669C726.906 69.1108 728.952 70.5046 730.568 72.2098C732.179 73.9299 733.386 75.9511 734.166 78.0584C734.96 80.1614 735.334 82.3487 735.391 84.4468C735.409 84.9728 735.423 85.4937 735.379 86.0087C735.34 86.5336 735.336 87.0053 735.252 87.5529C735.128 88.4404 734.937 89.4984 734.681 90.4143C734.197 92.2618 733.447 93.9227 732.584 95.3395C731.733 96.7667 730.74 97.9354 729.772 98.8597C728.816 99.8023 727.83 100.449 727.013 100.931C726.598 101.166 726.231 101.372 725.884 101.509C725.547 101.655 725.267 101.787 725.021 101.86C724.544 102.019 724.29 102.105 724.29 102.105C724.29 102.105 724.512 101.957 724.929 101.682C725.342 101.413 725.921 100.975 726.595 100.376C727.263 99.7647 728.021 98.9782 728.749 97.985C729.475 96.9894 730.172 95.7934 730.77 94.4324C731.355 93.0651 731.807 91.5203 732.094 89.8641C732.237 89.0308 732.303 88.2596 732.345 87.2735C732.33 86.4465 732.373 85.5135 732.253 84.6251C732.085 82.8229 731.66 80.999 730.955 79.2688C730.241 77.5473 729.247 75.9117 727.965 74.5723C726.704 73.2168 725.161 72.1676 723.491 71.55C723.077 71.3831 722.704 71.3283 722.311 71.1909C722.103 71.1343 721.813 71.1078 721.568 71.0652L721.188 71.0073L720.997 70.9789L720.902 70.9634L720.854 70.9565L720.832 70.952C721.029 70.9706 720.874 70.9584 720.913 70.961C720.474 70.957 720.036 70.9215 719.601 70.9313C719.171 70.9851 718.734 70.9767 718.31 71.0572C716.607 71.3364 714.998 72.0026 713.62 72.9133C712.243 73.8264 711.072 74.9398 710.144 76.1009C710.026 76.244 709.907 76.3846 709.79 76.5262C709.686 76.6758 709.584 76.8262 709.483 76.9704C709.28 77.269 709.078 77.557 708.884 77.8403C708.547 78.4333 708.165 78.9786 707.922 79.5441C707.644 80.0987 707.396 80.6259 707.208 81.1286C707.001 81.6295 706.808 82.0938 706.69 82.5235C706.555 82.956 706.434 83.3403 706.329 83.6763C706.247 84.0243 706.176 84.3204 706.119 84.5604C705.998 85.0385 705.936 85.296 705.936 85.296Z" fill="#51545B"/>
<path fill-rule="evenodd" clip-rule="evenodd" d="M727.997 85.984C727.585 92.3062 723.73 97.1856 719.384 96.8819C715.041 96.5793 711.852 91.2101 712.265 84.8863C712.677 78.5652 716.535 73.6844 720.877 73.9872C725.223 74.2911 728.41 79.6615 727.997 85.984Z" fill="#51545B"/>
<path fill-rule="evenodd" clip-rule="evenodd" d="M725.919 80.9225C725.823 82.3573 724.568 83.4409 723.115 83.3449C721.664 83.2486 720.567 82.0077 720.664 80.5713C720.761 79.1362 722.017 78.0513 723.47 78.1473C724.922 78.245 726.019 79.4872 725.919 80.9225Z" fill="#FFFFFE"/>
<path d="M54.102 139.612C61.5825 139.612 67.588 137.425 72.0131 133.153C76.5436 128.881 78.7561 123.567 78.7561 117.212C78.7561 107.731 73.5935 99.8125 64.0058 97.4162C70.3274 95.2282 74.6471 88.5601 74.6471 81.7879C74.6471 76.6826 72.6453 72.2025 68.747 68.3476C64.8487 64.4926 59.4753 62.6172 52.5216 62.6172H18.5959V139.612H54.102ZM49.2555 92.8319H33.9784V76.0575H49.8877C55.6824 76.0575 59.1593 79.7041 59.1593 84.1842C59.1593 88.7685 55.6824 92.8319 49.2555 92.8319ZM51.0466 126.068H33.9784V105.751H51.0466C58.6325 105.751 62.6361 110.44 62.6361 115.962C62.6361 121.38 58.5271 126.068 51.0466 126.068ZM109.416 140.967C125.852 140.967 135.755 131.59 135.755 115.649V82.8298H120.9V115.649C120.9 122.838 116.58 127.527 109.416 127.527C102.251 127.527 97.9315 122.838 97.9315 115.649V82.8298H83.0758V115.649C83.0758 131.59 93.085 140.967 109.416 140.967ZM167.258 140.967C173.896 140.967 179.48 139.404 184.221 136.278L179.796 124.714C176.319 126.693 173.053 127.631 170.208 127.631C164.835 127.631 162.095 124.297 162.095 117.629V95.124H181.06V82.8298H162.095V62.7214H147.345V82.8298H137.863V95.124H147.24V118.566C147.24 133.257 154.088 140.967 167.258 140.967ZM210.034 140.967C216.671 140.967 222.255 139.404 226.997 136.278L222.572 124.714C219.095 126.693 215.829 127.631 212.984 127.631C207.611 127.631 204.871 124.297 204.871 117.629V95.124H223.836V82.8298H204.871V62.7214H190.121V82.8298H180.639V95.124H190.016V118.566C190.016 133.257 196.864 140.967 210.034 140.967ZM255.654 140.863C265.137 140.863 273.46 138.258 280.73 133.049L274.83 122.734C269.878 126.068 262.503 128.464 256.287 128.464C247.226 128.464 241.642 124.401 239.534 116.378H282.626C282.942 114.086 283.153 111.898 283.153 109.919C283.153 101.063 280.414 94.1863 275.04 89.0811C269.667 83.9758 262.713 81.3711 254.39 81.3711C245.54 81.3711 238.375 84.1842 232.791 89.8104C227.207 95.4366 224.468 102.521 224.468 111.169C224.468 119.4 227.102 126.485 232.475 132.215C237.849 137.945 245.54 140.863 255.654 140.863ZM268.719 105.439H239.534C241.326 98.0413 246.91 93.5612 254.39 93.5612C261.976 93.5612 267.349 98.0413 268.719 105.439ZM302.434 139.612V112.628C302.434 100.854 308.018 95.4366 316.447 95.4366C318.554 95.4366 320.872 95.8533 323.295 96.5826L324.559 82.5172C322.241 81.6837 319.924 81.2669 317.606 81.2669C310.547 81.2669 305.279 84.2884 301.802 90.4355V82.8298H287.578V139.612H302.434ZM350.899 140.863C359.433 140.863 366.282 138.675 371.55 134.299C376.818 129.923 379.452 124.297 379.452 117.42C379.452 108.877 375.026 102.521 366.176 98.2497C364.174 97.312 361.014 95.9575 356.694 94.1863L349.003 90.8523C344.788 88.7685 342.681 86.268 342.681 83.2465C342.681 78.7664 346.474 75.8491 352.69 75.8491C358.485 75.8491 365.439 78.4538 369.758 83.0381L378.082 71.7858C371.128 64.8052 362.594 61.3669 352.48 61.3669C344.683 61.3669 338.256 63.5549 333.304 67.8266C328.352 72.0984 325.929 77.412 325.929 83.8717C325.929 91.9984 330.038 98.3539 338.256 103.042C340.363 104.188 343.419 105.647 347.422 107.21C349.831 108.126 351.697 108.827 353.04 109.356L353.493 109.535C354.212 109.823 354.75 110.052 355.114 110.231C359.855 112.419 362.173 115.128 362.173 118.254C362.173 123.151 357.431 126.485 351.005 126.485C342.997 126.485 335.411 122.734 330.354 115.753L321.399 126.485C327.825 135.758 338.783 140.863 350.899 140.863ZM408.847 139.508L421.595 103.98L434.554 139.508H447.514L466.9 82.8298H451.307L440.138 120.025L426.758 82.8298H416.327L403.368 120.025L391.884 82.8298H376.291L395.888 139.508H408.847ZM492.397 140.967C499.666 140.967 505.777 138.362 510.729 133.049V139.612H524.847V82.8298H510.729V89.602C505.672 84.08 499.561 81.3711 492.397 81.3711C484.284 81.3711 477.436 84.1842 472.062 89.8104C466.689 95.3324 463.95 102.417 463.95 110.961C463.95 119.504 466.584 126.693 471.957 132.423C477.33 138.154 484.179 140.967 492.397 140.967ZM494.82 127.631C490.184 127.631 486.391 126.068 483.336 122.838C480.28 119.608 478.805 115.753 478.805 111.169C478.805 106.689 480.28 102.834 483.23 99.6041C486.286 96.3743 490.079 94.8114 494.82 94.8114C499.456 94.8114 503.249 96.3743 506.304 99.6041C509.36 102.834 510.94 106.689 510.94 111.169C510.94 115.753 509.36 119.608 506.304 122.838C503.249 126.068 499.456 127.631 494.82 127.631ZM547.289 162.951V133.049C552.241 138.362 558.246 140.967 565.305 140.967C573.418 140.967 580.161 138.05 585.534 132.319C590.908 126.589 593.647 119.504 593.647 111.169C593.647 102.834 591.013 95.7491 585.64 90.0188C580.266 84.2884 573.523 81.3711 565.411 81.3711C558.141 81.3711 552.135 84.1842 547.183 89.8104V82.8298H532.433V162.951H547.289ZM562.777 127.527C558.141 127.527 554.348 125.964 551.398 122.838C548.448 119.712 546.973 115.858 546.973 111.273C546.973 106.689 548.448 102.834 551.398 99.7083C554.348 96.5826 558.141 95.0198 562.777 95.0198C567.518 95.0198 571.311 96.5826 574.261 99.7083C577.211 102.834 578.686 106.689 578.686 111.273C578.686 115.858 577.211 119.712 574.261 122.838C571.311 125.964 567.518 127.527 562.777 127.527Z" fill="#51545B"/>
<path fill-rule="evenodd" clip-rule="evenodd" d="M566.804 79.5242C566.804 79.5242 567.617 72.7896 560.703 71.9742C553.789 71.1589 550.49 76.3657 550.027 83.2121C549.792 86.6942 550.057 90.87 557.784 89.2372C565.513 87.6045 563.754 79.3204 563.754 79.3204L566.804 79.5242Z" fill="#CED1D7"/>
<path fill-rule="evenodd" clip-rule="evenodd" d="M556.181 83.4397C556.532 78.1231 558.56 73.7969 562.619 72.5106C562.005 72.2611 561.298 72.0731 560.478 71.9742C553.709 71.1589 550.479 76.3657 550.025 83.2121C549.796 86.6942 550.055 90.87 557.621 89.2372C557.73 89.2136 557.828 89.1848 557.932 89.158C556.085 88.0132 556.039 85.5949 556.181 83.4397Z" fill="#FFFFFE"/>
<path fill-rule="evenodd" clip-rule="evenodd" d="M559.312 72.9693C552.514 72.9693 551.295 80.1787 551.085 83.2784C550.975 84.8869 550.985 86.6595 551.873 87.6123C552.782 88.5869 554.735 88.7795 557.565 88.1831C559.47 87.7812 560.879 86.8934 561.756 85.5436C563.42 82.9812 562.721 79.5793 562.716 79.5447L562.424 78.1731L565.772 78.3963C565.685 76.7127 564.934 73.5587 560.576 73.0453C560.144 72.994 559.718 72.9693 559.312 72.9693ZM554.722 90.644C552.787 90.644 551.308 90.1116 550.328 89.06C548.885 87.5156 548.834 85.198 548.974 83.1352C549.492 75.4429 553.357 70.8481 559.312 70.8481C559.8 70.8481 560.309 70.8788 560.824 70.939C563.188 71.2185 565.009 72.1527 566.238 73.7198C568.235 76.2604 567.866 79.5181 567.85 79.6563L567.728 80.6537L564.954 80.4671C565.051 81.9917 564.94 84.5284 563.531 86.6999C562.336 88.5387 560.476 89.7353 558 90.2567C556.783 90.5146 555.681 90.644 554.722 90.644Z" fill="#51545B"/>
<path fill-rule="evenodd" clip-rule="evenodd" d="M579.447 78.209C579.447 78.209 580.253 71.7028 573.41 70.912C566.568 70.1231 562.744 76.7795 561.737 83.3374C560.731 89.8943 564.153 90.4375 571.8 88.8587C579.447 87.2818 576.429 78.012 576.429 78.012L579.447 78.209Z" fill="#CED1D7"/>
<path fill-rule="evenodd" clip-rule="evenodd" d="M566.602 84.731C567.514 78.8793 570.705 72.9546 576.315 72.3044C575.423 71.6234 574.206 71.1023 572.536 70.912C565.59 70.123 561.708 76.7801 560.686 83.3386C559.849 88.7103 562.03 90.0444 567.112 89.4839C566.428 88.4932 566.254 86.9592 566.602 84.731Z" fill="#FFFFFE"/>
<path fill-rule="evenodd" clip-rule="evenodd" d="M572.32 71.8623C566.587 71.8623 563.591 78.1292 562.768 83.4951C562.45 85.5712 562.611 86.9935 563.249 87.7193C563.762 88.3044 564.716 88.5879 566.167 88.5879C567.479 88.5879 569.199 88.3591 571.585 87.8658C573.25 87.5211 574.411 86.7683 575.128 85.5617C576.82 82.7203 575.445 78.3639 575.433 78.3198L574.969 76.8833L578.434 77.1094C578.349 75.4775 577.604 72.4168 573.289 71.9197C572.962 71.8825 572.635 71.8623 572.32 71.8623ZM566.167 90.644C564.069 90.644 562.596 90.1259 561.66 89.0609C560.577 87.8266 560.27 85.9601 560.697 83.1886C561.642 77.0154 565.255 69.8063 572.32 69.8063C572.716 69.8063 573.126 69.8302 573.533 69.8771C575.874 70.1472 577.678 71.054 578.896 72.5729C580.874 75.0379 580.51 78.1962 580.494 78.3303L580.374 79.2968L577.785 79.1282C578.133 80.9324 578.425 84.0936 576.944 86.5902C575.923 88.3073 574.267 89.4134 572.015 89.8779C569.484 90.4007 567.627 90.644 566.167 90.644Z" fill="#51545B"/>
<path fill-rule="evenodd" clip-rule="evenodd" d="M590.012 78.9486C590.012 78.9486 588.695 72.7669 581.808 71.9692C574.923 71.1716 572.289 76.5061 571.277 83.1374C570.264 89.7677 572.492 91.7131 580.188 90.1167C587.883 88.5214 584.847 79.1497 584.847 79.1497L590.012 78.9486Z" fill="#FFFFFE"/>
<path fill-rule="evenodd" clip-rule="evenodd" d="M590.012 79.6211C590.012 79.6211 588.964 74.6715 583.9 72.9319C585.836 74.9549 586.328 77.2769 586.328 77.2769L581.048 77.4825C581.048 77.4825 584.152 87.1521 576.286 88.798C574.137 89.2469 572.408 89.4224 571.048 89.3028C572.029 91.7247 574.785 92.2274 579.968 91.1421C587.835 89.4963 584.731 79.8286 584.731 79.8286L590.012 79.6211Z" fill="#CED1D7"/>
<path fill-rule="evenodd" clip-rule="evenodd" d="M580.371 72.9257C575.931 72.9257 573.364 76.22 572.296 83.2923C571.887 86.0053 572.063 87.757 572.834 88.6498C573.391 89.2949 574.38 89.6082 575.855 89.6082H575.856C576.933 89.6082 578.244 89.4439 579.863 89.1034C581.525 88.7552 582.678 87.9921 583.392 86.7704C585.078 83.8852 583.706 79.5066 583.693 79.4631L583.275 78.1632L588.362 77.9649C587.643 76.3139 585.809 73.4953 581.559 72.9973C581.151 72.9499 580.751 72.9257 580.371 72.9257ZM575.856 91.6858H575.855C573.735 91.6849 572.231 91.1345 571.252 90.0048C570.029 88.5888 569.714 86.4232 570.235 82.9838C571.469 74.8176 574.784 70.8481 580.371 70.8481C580.833 70.8481 581.313 70.8771 581.802 70.9351C589.27 71.8104 590.798 78.6652 590.812 78.7348L591.066 79.938L586.003 80.1353C586.362 81.9305 586.708 85.2257 585.194 87.8151C584.181 89.5493 582.533 90.6664 580.293 91.1364C578.531 91.5051 577.079 91.6858 575.856 91.6858Z" fill="#51545B"/>
<path fill-rule="evenodd" clip-rule="evenodd" d="M832.639 104.188C832.639 104.188 858.035 107.624 862.178 122.489C866.21 136.946 851.878 153.157 851.878 153.157L838.807 143.369C838.807 143.369 866.943 117.596 826.247 112.717C824.567 104.559 832.639 104.188 832.639 104.188Z" fill="#A4B0A8"/>
<path fill-rule="evenodd" clip-rule="evenodd" d="M862.176 122.489C858.026 107.624 832.585 104.188 832.585 104.188C832.585 104.188 828.957 104.367 827.071 106.936C829.546 107.31 852.506 111.144 856.433 125.205C859.168 134.992 853.472 145.577 849.507 151.399L851.858 153.157C851.858 153.157 866.216 136.946 862.176 122.489Z" fill="#7E9589"/>
<path fill-rule="evenodd" clip-rule="evenodd" d="M841.557 143.391L852.198 151.269C855.172 147.56 864.596 134.605 861.374 123.181C857.677 110.07 835.116 106.378 833.05 106.065C832.491 106.121 830.104 106.451 828.812 108.096C828.093 109.016 827.808 110.251 827.964 111.774C840.466 113.425 847.802 117.306 849.775 123.321C852.381 131.267 844.694 140.182 841.557 143.391ZM852.65 155.241L836.998 143.656L838.3 142.473C838.413 142.37 849.564 132.132 846.96 124.21C845.311 119.196 838.428 115.938 826.498 114.521L825.44 114.397L825.227 113.37C824.628 110.495 825.052 108.118 826.491 106.298C828.802 103.377 832.86 103.16 833.031 103.152L833.164 103.146L833.299 103.163C834.379 103.308 859.847 106.886 864.223 122.403C868.438 137.356 854.164 153.547 853.553 154.231L852.65 155.241Z" fill="#51545B"/>
<path fill-rule="evenodd" clip-rule="evenodd" d="M851.097 164.618C851.097 164.618 859.202 160.207 853.463 150.629C847.725 141.05 831.891 132.031 822.856 149.646C827.929 156.512 851.097 164.618 851.097 164.618Z" fill="#FFFFFE"/>
<path fill-rule="evenodd" clip-rule="evenodd" d="M853.488 150.625C848.369 141.97 835.111 133.782 826.017 145.263C834.626 139.842 845.027 146.929 849.425 154.361C852.057 158.808 851.74 162.142 850.647 164.436C850.968 164.553 851.151 164.618 851.151 164.618C851.151 164.618 859.157 160.206 853.488 150.625Z" fill="#CED1D7"/>
<path fill-rule="evenodd" clip-rule="evenodd" d="M824.26 149.496C828.92 154.341 844.002 160.256 850.484 162.5C851.29 161.927 852.829 160.602 853.395 158.535C853.969 156.43 853.428 154.018 851.778 151.364C848.72 146.437 842.322 141.45 836.015 141.45C831.283 141.45 827.332 144.155 824.26 149.496ZM850.809 165.66L850.196 165.452C849.234 165.128 826.579 157.42 821.303 150.534L820.749 149.811L821.173 149.01C825.762 140.382 831.778 138.571 836.015 138.571C843.759 138.571 850.923 144.43 854.305 149.871C856.395 153.24 857.044 156.42 856.233 159.323C855.104 163.363 851.529 165.279 851.38 165.359L850.809 165.66Z" fill="#51545B"/>
<path fill-rule="evenodd" clip-rule="evenodd" d="M801.665 178.909C801.665 178.909 797.147 186.442 807.984 190.35C818.825 194.262 816.857 201.789 823.45 195.609C830.044 189.43 822.55 181.292 816.517 179.177C810.486 177.063 801.665 178.909 801.665 178.909Z" fill="#CED1D7"/>
<path fill-rule="evenodd" clip-rule="evenodd" d="M802.017 180.564C801.699 181.321 801.267 182.788 801.827 184.309C802.529 186.22 804.57 187.764 807.894 188.902C812.855 190.606 815.374 193.028 817.04 194.63C817.907 195.464 818.593 196.122 819.067 196.125C819.457 196.125 820.286 195.798 822.03 194.243C823.781 192.681 824.434 190.983 824.025 189.05C823.274 185.51 819.041 182.061 815.546 180.897C813.761 180.3 811.494 179.997 808.811 179.997C805.886 179.997 803.231 180.366 802.017 180.564ZM819.067 199C817.396 199 816.283 197.926 814.989 196.682C813.421 195.175 811.272 193.108 806.924 191.619C802.706 190.171 800.059 188.027 799.053 185.243C797.791 181.744 799.703 178.649 799.783 178.521L800.117 177.99L800.739 177.865C800.891 177.837 804.529 177.12 808.811 177.12C811.816 177.12 814.399 177.476 816.491 178.175C820.78 179.604 825.882 183.696 826.894 188.465C827.326 190.511 827.174 193.54 824 196.371C821.907 198.238 820.477 199 819.067 199Z" fill="#51545B"/>
<path fill-rule="evenodd" clip-rule="evenodd" d="M849.208 158.115L831.165 147.948C831.165 147.948 820.054 150.308 811.641 152.704C804.997 154.596 796.159 155.958 797.76 166.09C799.36 176.222 797.456 185.899 810.694 185.899C818.695 193.602 824.761 191.428 824.761 191.428C824.761 191.428 837.329 205.685 842.847 188.241C853.523 185.87 856.945 168.283 849.208 158.115Z" fill="#FFFFFE"/>
<path fill-rule="evenodd" clip-rule="evenodd" d="M849.313 158.366C852.933 168.393 849.108 181.147 840.166 183.135C834.68 200.518 822.185 186.311 822.185 186.311C822.185 186.311 816.152 188.477 808.199 180.802C804.062 180.802 801.415 179.848 799.677 178.231C800.829 182.798 803.435 185.939 810.942 185.939C818.897 193.614 824.928 191.448 824.928 191.448C824.928 191.448 837.424 205.653 842.91 188.273C853.484 185.919 856.9 168.514 849.313 158.366Z" fill="#CED1D7"/>
<path fill-rule="evenodd" clip-rule="evenodd" d="M836.553 189.011C836.553 189.011 836.739 188.945 837.064 188.827C837.377 188.702 837.807 188.547 838.276 188.316C838.514 188.221 838.755 188.074 839.008 187.954C839.253 187.806 839.514 187.683 839.759 187.51C840.016 187.364 840.255 187.176 840.504 187.001C840.752 186.825 840.979 186.613 841.224 186.424C841.442 186.202 841.686 186.007 841.902 185.782C842.101 185.54 842.347 185.341 842.54 185.102C842.735 184.863 842.939 184.635 843.143 184.42C843.318 184.186 843.497 183.967 843.67 183.761C843.854 183.563 844.021 183.37 844.154 183.189C844.287 183.009 844.428 182.857 844.536 182.729C844.762 182.474 844.92 182.33 844.92 182.33C844.92 182.33 844.955 182.526 844.971 182.871C844.975 183.045 844.99 183.256 844.975 183.494C844.972 183.615 844.969 183.743 844.964 183.878C844.945 184.012 844.916 184.147 844.89 184.295C844.832 184.583 844.758 184.898 844.666 185.227C844.544 185.544 844.398 185.879 844.235 186.222C844.071 186.562 843.827 186.882 843.594 187.213C843.357 187.543 843.036 187.822 842.747 188.122C842.408 188.375 842.085 188.649 841.713 188.845C841.347 189.047 840.979 189.228 840.598 189.339C840.228 189.479 839.844 189.528 839.493 189.589C839.133 189.612 838.798 189.642 838.487 189.606C838.18 189.59 837.9 189.534 837.657 189.476C837.418 189.423 837.212 189.342 837.047 189.277C836.717 189.139 836.553 189.011 836.553 189.011Z" fill="#51545B"/>
<path fill-rule="evenodd" clip-rule="evenodd" d="M823.163 191.707C823.163 191.707 823.083 191.014 823.015 189.9C822.98 189.351 822.922 188.71 822.919 188.039C822.906 187.367 822.888 186.651 822.872 185.937C822.87 185.577 822.846 185.224 822.861 184.871C822.87 184.52 822.879 184.174 822.886 183.839C822.901 183.172 822.917 182.551 822.929 182.017C822.954 180.955 822.974 180.246 822.974 180.246C822.974 180.246 823.137 180.936 823.384 181.971C823.508 182.487 823.652 183.09 823.806 183.736C823.883 184.056 823.963 184.39 824.043 184.726C824.117 185.064 824.232 185.401 824.325 185.739C824.52 186.414 824.715 187.089 824.897 187.721C825.069 188.36 825.275 188.925 825.438 189.412C825.752 190.374 826.017 191.048 826.017 191.048L823.163 191.707Z" fill="#51545B"/>
<path fill-rule="evenodd" clip-rule="evenodd" d="M809.211 186.497C809.211 186.497 809.203 185.783 809.19 184.708C809.187 183.633 809.144 182.213 809.166 180.765C809.189 177.902 809.213 175.037 809.213 175.037C809.213 175.037 809.965 177.804 810.722 180.573C811.085 181.943 811.519 183.327 811.815 184.36C812.117 185.395 812.32 186.085 812.32 186.085L809.211 186.497Z" fill="#51545B"/>
<path fill-rule="evenodd" clip-rule="evenodd" d="M851.003 157.661C851.003 157.661 852.55 164.501 852.539 171.119C852.581 172.463 852.505 173.814 852.302 175.146C852.289 175.252 852.274 175.357 852.258 175.464C852.256 175.489 852.252 175.514 852.247 175.537C852.012 177.17 851.619 178.675 851.003 179.915C851.002 179.921 850.998 179.924 850.994 179.929C849.32 183.987 846.536 186.631 843.102 187.395L842.265 187.582L842.012 188.385C840.581 192.917 838.603 195.473 836.133 195.982C832.399 196.755 827.848 192.695 826.41 191.07L825.739 190.306L824.774 190.653C824.725 190.671 819.37 192.327 812.213 185.424L811.779 185.004H811.172C801.593 185.004 801.08 179.722 800.301 171.727C800.131 169.978 799.956 168.172 799.663 166.328C798.63 159.767 802.224 157.533 808.181 155.718H808.179L833.055 147.948C832.945 147.972 820.1 149.298 811.707 151.69C811.128 151.856 810.53 152.019 809.922 152.183C803.651 153.879 795.059 156.199 796.727 166.774C797.006 168.535 797.177 170.3 797.343 172.005C798.091 179.702 798.866 187.654 810.566 187.918C817.148 194.041 822.602 193.989 824.783 193.635C826.341 195.205 830.584 199.002 835.157 199C835.681 199 836.207 198.951 836.737 198.842C840.176 198.135 842.818 195.171 844.594 190.026C848.755 188.78 852.159 185.31 854.01 180.375C856.828 172.871 855.622 163.742 851.003 157.661Z" fill="#51545B"/>
</svg>
