<svg width="102" height="68" viewBox="0 0 102 68" fill="none" xmlns="http://www.w3.org/2000/svg">
<path fill-rule="evenodd" clip-rule="evenodd" d="M99.8451 52.1571C99.8451 56.9743 77.4943 60.8796 49.9225 60.8796C22.3512 60.8796 0 56.9743 0 52.1571C0 47.3395 22.3512 43.4346 49.9225 43.4346C77.4943 43.4346 99.8451 47.3395 99.8451 52.1571Z" fill="#B1B3B0"/>
<path fill-rule="evenodd" clip-rule="evenodd" d="M93.0211 3.906C91.4987 14.0358 84.77 23.1039 80.766 27.7313C78.9824 29.793 77.7392 30.9738 77.7392 30.9738L6.46478 9.52731L19.4238 0.356018C19.4238 0.356018 43.5544 7.15338 78.4166 5.20344C80.7429 5.07344 83.1184 4.90454 85.5365 4.69198C87.9879 4.47572 90.4843 4.21573 93.0211 3.906Z" fill="#F6EC5A"/>
<path fill-rule="evenodd" clip-rule="evenodd" d="M93.0211 3.91623C91.4987 14.0422 84.77 23.1068 80.766 27.7326C78.9824 29.7934 77.7392 30.9738 77.7392 30.9738L6.46478 9.53542L8.84108 7.85456C61.0719 18.0174 76.5165 5.58967 76.5165 5.58967L78.4166 5.21318C80.7429 5.08323 83.1184 4.91439 85.5365 4.70192C87.9879 4.48573 90.4843 4.22584 93.0211 3.91623Z" fill="#F5D84A"/>
<path fill-rule="evenodd" clip-rule="evenodd" d="M93.0211 3.91623C91.4993 14.0203 84.7732 23.0652 80.7709 27.6809C79.7039 27.9645 79.0331 28.1257 78.9671 28.1257C78.8462 28.1257 71.9332 27.5792 62.8029 26.4291L18.1147 13.0108C17.9681 12.5539 17.9215 12.085 17.9864 11.6051C46.9089 14.8358 63.7733 14.5935 72.8972 12.5745C82.0226 10.5545 84.7109 5.14133 84.7109 5.14133L85.5395 4.70021C87.9899 4.4845 90.4854 4.22517 93.0211 3.91623Z" fill="#F5CB34"/>
<path fill-rule="evenodd" clip-rule="evenodd" d="M19.7903 2.55514C19.7903 2.55514 49.5838 9.70472 91.7171 4.67853C91.8884 3.9202 92.9058 4.70265 93.0211 3.9307C50.4765 9.16409 19.4238 0.356018 19.4238 0.356018L6.46478 9.59052L8.88736 10.3246L19.7903 2.55514Z" fill="#FFFFFE"/>
<path fill-rule="evenodd" clip-rule="evenodd" d="M7.69117 9.40033L77.8146 30.3038C78.5791 29.5532 81.4016 26.6964 84.3874 22.5747C87.4991 18.2797 91.4142 11.7159 92.6633 4.55826C83.8815 5.59491 74.9249 6.12021 66.0295 6.12021C39.9565 6.12021 21.883 1.59068 19.6643 1.00686L7.69117 9.40033ZM77.9506 31.3298C77.9032 31.3298 77.8554 31.3232 77.8087 31.3091L6.45329 10.0383C6.27469 9.98507 6.14204 9.83639 6.11215 9.65494C6.08189 9.47356 6.15886 9.29112 6.3113 9.18445L19.285 0.0893483C19.4057 0.00452682 19.5596 -0.0215523 19.7024 0.0182101C19.8866 0.0696694 38.4474 5.15635 66.0295 5.15635C75.1031 5.15635 84.241 4.60725 93.1898 3.52421C93.3415 3.50619 93.4939 3.55857 93.6004 3.66627C93.7069 3.77415 93.7566 3.92489 93.7342 4.07382C92.5815 11.6705 88.4422 18.6413 85.1725 23.1513C81.637 28.0279 78.3221 31.1652 78.2888 31.1962C78.1965 31.2832 78.0747 31.3298 77.9506 31.3298Z" fill="#967230"/>
<path fill-rule="evenodd" clip-rule="evenodd" d="M83.5667 13.6711L93.277 3.91623C93.277 3.91623 98.8603 25.791 94.7333 46.7788C83.324 52.6911 83.324 52.6911 83.324 52.6911L83.5667 13.6711Z" fill="#F5D84A"/>
<path fill-rule="evenodd" clip-rule="evenodd" d="M93.277 3.91623L90.8897 6.3145C92.1754 12.495 95.1405 29.9543 91.8205 46.8396C87.6556 48.998 85.0122 50.3674 83.3332 51.2376L83.324 52.6911C83.324 52.6911 83.324 52.6911 94.7333 46.7788C98.8603 25.791 93.277 3.91623 93.277 3.91623Z" fill="#F5CB34"/>
<path fill-rule="evenodd" clip-rule="evenodd" d="M83.8279 13.9482L83.5896 51.7674L94.1623 46.3612C96.246 35.7148 95.7372 24.8584 94.9389 17.6034C94.2643 11.4729 93.2758 6.81946 92.8559 4.99916L83.8279 13.9482ZM83.095 53.0471C83.0061 53.0471 82.9179 53.0232 82.8395 52.9763C82.6934 52.8878 82.6045 52.7301 82.6056 52.5612L82.8503 13.7445C82.851 13.6177 82.9022 13.4965 82.993 13.4066L92.7823 3.70245C92.9067 3.57924 93.0883 3.53142 93.2583 3.57739C93.4282 3.62315 93.5597 3.75546 93.6034 3.9238C93.6176 3.97855 95.0293 9.48971 95.9102 17.4813C96.7235 24.8595 97.239 35.931 95.0779 46.7759C95.0491 46.9205 94.955 47.0443 94.8227 47.1118L83.3202 52.9933C83.2493 53.0294 83.1723 53.0471 83.095 53.0471Z" fill="#967230"/>
<path fill-rule="evenodd" clip-rule="evenodd" d="M82.8907 52.8158C64.5851 57.1268 43.1535 55.5794 27.3008 53.2406C13.8814 51.2603 4.45739 48.713 4.31099 48.6741L4.30988 48.6733L6.50653 9.61258C6.50653 9.61258 8.58622 10.1822 12.1299 11.0055C22.3096 13.3724 44.566 17.8358 64.2763 16.9204C65.145 16.8795 66.0089 16.8284 66.8656 16.7671C69.3688 16.5859 71.8199 16.3109 74.1872 15.9243C77.3438 15.4113 80.351 14.7004 83.1344 13.7553C83.1344 13.7553 85.331 40.6832 82.8907 52.8158Z" fill="#F6EC5A"/>
<path fill-rule="evenodd" clip-rule="evenodd" d="M82.8906 52.8245C64.5854 57.1217 43.1538 55.5794 27.3012 53.2476C13.8814 51.2741 4.45776 48.7347 4.31137 48.6959L4.30988 48.6947C60.0729 55.3457 75.7944 16.4342 75.7944 16.4342L66.8659 16.8869C72.7094 16.4665 78.2638 15.5325 83.1346 13.8848C83.1346 13.8848 85.3309 40.729 82.8906 52.8245Z" fill="#F5D84A"/>
<path fill-rule="evenodd" clip-rule="evenodd" d="M83.2497 52.8245C64.9428 57.1217 43.5091 55.5794 27.655 53.2476C50.0159 55.0428 75.7058 51.125 77.1483 49.7958C82.3184 34.5528 77.7548 16.0946 77.7548 16.0946L64.6339 17.0396C71.4227 16.7257 77.9075 15.7747 83.4937 13.8848C83.4937 13.8848 85.6902 40.729 83.2497 52.8245Z" fill="#F5CB34"/>
<path fill-rule="evenodd" clip-rule="evenodd" d="M8.04797 12.4724C8.04797 12.4724 54.9091 23.032 82.6515 14.5399C82.5174 12.4896 83.324 13.7584 83.324 13.7584C55.8038 23.0869 6.51181 9.61258 6.51181 9.61258L4.30988 48.7032C4.30988 48.7032 4.89648 48.8621 5.98345 49.1309L8.04797 12.4724Z" fill="#FFFFFE"/>
<path fill-rule="evenodd" clip-rule="evenodd" d="M4.94997 48.2171C8.22126 49.0593 31.9121 54.9283 56.7486 54.9283C66.4002 54.9283 75.1319 54.0455 82.7073 52.3041C84.8152 41.3306 83.2352 18.5479 82.9315 14.5139C76.5419 16.5699 68.5136 17.6119 59.056 17.6119C36.0678 17.6119 11.1919 11.422 7.09328 10.3596L4.94997 48.2171ZM56.7486 55.8953C29.9915 55.8953 4.56465 49.1184 4.31101 49.0497C4.08832 48.99 3.93874 48.7845 3.95068 48.5565L6.15069 9.71286C6.15927 9.56695 6.23349 9.43265 6.3536 9.34739C6.47334 9.26206 6.6259 9.2352 6.76839 9.27376C7.03956 9.34743 34.1715 16.645 59.056 16.645C68.7035 16.645 76.831 15.5541 83.2131 13.402C83.3564 13.3539 83.5134 13.3738 83.6391 13.4554C83.7652 13.5372 83.8461 13.6719 83.8581 13.8205C83.8805 14.0889 86.035 40.8052 83.6059 52.7981C83.5686 52.9837 83.425 53.1301 83.2393 53.1737C75.5191 54.9796 66.6064 55.8953 56.7486 55.8953Z" fill="#967230"/>
<path fill-rule="evenodd" clip-rule="evenodd" d="M55.3098 38.0942C55.0488 38.9233 54.7625 39.7226 54.4623 40.4874C54.0004 41.6703 53.5008 42.7715 52.9809 43.7828C51.7181 46.2584 50.3488 48.2035 49.1694 49.481C48.428 50.2826 47.7618 50.8213 47.2442 51.0604C45.8388 51.7068 38.7365 50.6817 35.1387 50.1066C33.8732 49.9039 33.0422 49.758 33.0422 49.758C33.0422 49.758 34.2851 44.7863 33.6392 41.0191C33.6392 41.0191 33.725 41.0365 33.889 41.064C35.6266 41.3529 46.0931 42.8324 55.3098 38.0942Z" fill="#51545B"/>
<path fill-rule="evenodd" clip-rule="evenodd" d="M33.5503 49.4714C33.9053 49.5327 34.4976 49.6337 35.2436 49.7554C37.7187 50.1561 41.2206 50.6722 43.8441 50.8489C46.0396 50.9971 46.7465 50.8426 46.9724 50.7372C47.4468 50.5151 48.0815 49.9834 48.7584 49.2404C50.0236 47.8503 51.3385 45.8549 52.4617 43.6219C52.9858 42.5878 53.4721 41.4903 53.9079 40.3578C54.1104 39.8361 54.3003 39.3111 54.4754 38.7913C47.9034 41.9496 40.8088 42.0231 37.0826 41.7717C37.0826 41.7717 37.0826 41.7717 37.0822 41.7717C35.7384 41.6811 34.7209 41.5445 34.1315 41.452C34.5299 44.5992 33.8088 48.2966 33.5503 49.4714ZM43.7966 51.5596C41.1453 51.3806 37.6197 50.8623 35.1297 50.4583C33.879 50.2541 33.057 50.1085 33.057 50.1085L32.6831 50.0421L32.7736 49.6726C32.7862 49.6236 33.9746 44.7269 33.3574 41.0766L33.2703 40.5628L33.7803 40.669C33.784 40.6697 33.8637 40.686 34.0143 40.7117C34.5273 40.7982 35.6152 40.9593 37.1301 41.0614C40.9264 41.3176 48.2859 41.2318 54.9112 37.7769L55.669 37.3822L55.4149 38.1987C55.1683 38.9936 54.8841 39.8064 54.5711 40.6147C54.1271 41.7688 53.6308 42.889 53.0963 43.9435C51.9453 46.231 50.5915 48.2832 49.2844 49.7202C48.5344 50.543 47.8393 51.1177 47.2736 51.3828C46.9424 51.5369 46.2217 51.723 43.7966 51.5596Z" fill="#51545B"/>
<path fill-rule="evenodd" clip-rule="evenodd" d="M52.7958 43.7278C51.5502 46.2216 50.1996 48.181 49.0364 49.4679C48.3051 50.2754 47.6479 50.818 47.1374 51.0589C45.7512 51.71 38.7459 50.6774 35.1972 50.0981C35.6469 49.355 36.009 48.7715 36.009 48.7715C36.009 48.7715 39.3336 45.6711 42.204 45.419C43.3546 45.3169 43.7913 45.6775 43.7913 45.6775C43.7913 45.6775 48.2453 42.4675 52.7958 43.7278Z" fill="#BB393F"/>
<path fill-rule="evenodd" clip-rule="evenodd" d="M51 44.3865C49.9578 46.4271 48.8276 48.0301 47.8546 49.0833C47.2425 49.7438 46.6929 50.1881 46.2658 50.3848C45.1056 50.9173 39.2438 50.0729 36.2747 49.5988C36.6509 48.9906 36.9538 48.5135 36.9538 48.5135C36.9538 48.5135 39.7361 45.9769 42.1372 45.7699C43.1001 45.6869 43.4662 45.9821 43.4662 45.9821C43.4662 45.9821 47.1923 43.3554 51 44.3865Z" fill="#DE5052"/>
<path fill-rule="evenodd" clip-rule="evenodd" d="M35.9962 49.8275C38.4235 50.2166 41.6275 50.6778 44.07 50.8438C46.2645 50.9929 46.9711 50.8374 47.1969 50.7313C47.6711 50.5078 48.3054 49.9725 48.982 49.2246C50.1707 47.9093 51.4034 46.0555 52.4797 43.971C52.1152 43.8928 51.7412 43.8401 51.3619 43.8144C47.6021 43.5591 44.2439 45.9459 44.2109 45.9699L43.9892 46.1298L43.779 45.9557C43.7779 45.9553 43.5565 45.8028 43.0356 45.7673C42.8547 45.755 42.6571 45.7583 42.4487 45.7763C39.8861 46.002 36.8571 48.6816 36.503 49.0022C36.4356 49.1106 36.2443 49.4194 35.9962 49.8275ZM44.0226 51.5592C41.3724 51.379 37.8485 50.8573 35.3597 50.4506L34.838 50.3654L35.1127 49.9101C35.5628 49.1652 35.9258 48.5795 35.9258 48.5795L35.9514 48.5395L35.9862 48.5063C36.1252 48.3769 39.4316 45.3229 42.3861 45.0631C42.6315 45.0411 42.8662 45.0373 43.0834 45.0523C43.5094 45.081 43.802 45.1741 43.9858 45.2578C44.7752 44.7353 47.8776 42.8594 51.4101 43.0997C51.987 43.139 52.5542 43.2346 53.0951 43.3849L53.5141 43.5008L53.3183 43.8921C52.1675 46.1953 50.8143 48.2611 49.5078 49.7075C48.7581 50.5358 48.0633 51.1144 47.4979 51.3813C47.1669 51.5364 46.4465 51.7236 44.0226 51.5592Z" fill="#51545B"/>
<path fill-rule="evenodd" clip-rule="evenodd" d="M49.2042 49.736C48.4665 50.5802 47.805 51.147 47.2902 51.3985C45.4038 52.3165 33.7606 50.1228 33.7606 50.1228C33.7606 50.1228 34.1105 48.9751 34.8053 48.4189C37.8945 48.8036 44.257 50.1485 49.2042 49.736Z" fill="#FFFFFE"/>
<path fill-rule="evenodd" clip-rule="evenodd" d="M34.0089 49.4875C35.4772 49.7485 40.3525 50.5838 43.7655 50.8197C45.9997 50.9742 46.7284 50.8089 46.9637 50.6963C47.289 50.5398 47.6887 50.2365 48.1267 49.8163C47.0235 49.8614 45.8083 49.836 44.4419 49.7416H44.4411C41.8054 49.5596 39.1673 49.1526 37.0474 48.8261C36.1345 48.6854 35.3366 48.5621 34.6726 48.4777C34.3819 48.7537 34.1537 49.1642 34.0089 49.4875ZM43.717 51.5578C39.6366 51.2753 33.5077 50.1482 33.4464 50.137L33.0422 50.0619L33.1667 49.6606C33.1821 49.6101 33.5626 48.4106 34.3417 47.7978L34.4579 47.7068L34.6038 47.7245C35.3073 47.8101 36.1634 47.9419 37.1546 48.0953C39.2613 48.4195 41.8832 48.8242 44.4893 49.0042H44.4904C46.2215 49.1241 47.7003 49.1302 49.0115 49.0227L49.9225 48.9483L49.3062 49.6398C48.546 50.4939 47.8413 51.091 47.2691 51.3662C46.9246 51.5304 46.1839 51.7278 43.717 51.5578Z" fill="#51545B"/>
<path fill-rule="evenodd" clip-rule="evenodd" d="M54.9507 38.0942C54.6917 38.9183 54.4093 39.7114 54.1119 40.471C45.7451 45.0394 35.8389 43.757 35.1255 43.1586C34.4293 42.5734 33.7941 41.117 33.7606 41.0436C35.4794 41.3305 45.8333 42.7995 54.9507 38.0942Z" fill="#FFFFFE"/>
<path fill-rule="evenodd" clip-rule="evenodd" d="M34.5995 41.493C34.8913 42.0557 35.2468 42.612 35.5761 42.8896C35.7153 42.9878 36.6545 43.2525 38.5092 43.3773C40.525 43.5128 47.5678 43.6823 53.9569 40.2208C54.1406 39.7435 54.3147 39.2624 54.4765 38.7836C47.9148 41.9235 40.8316 41.9973 37.1112 41.7466C37.1112 41.7466 37.1112 41.7466 37.1108 41.7463C36.0553 41.6758 35.2017 41.5768 34.5995 41.493ZM38.4611 44.0836C37.1734 43.9968 35.5242 43.7738 35.1169 43.4301C34.4569 42.8723 33.8847 41.6832 33.6688 41.1977L33.4014 40.5963L34.0466 40.6926C34.5602 40.7787 35.6464 40.9389 37.1589 41.0404C40.9494 41.2955 48.2966 41.2102 54.9124 37.775L55.669 37.3822L55.4153 38.1944C55.1665 38.9911 54.8824 39.7996 54.5724 40.5967L54.5262 40.7163L54.4128 40.7783C48.0044 44.2988 41.1227 44.2622 38.4611 44.0836Z" fill="#51545B"/>
<path fill-rule="evenodd" clip-rule="evenodd" d="M29.0916 16.3769C29.1391 16.2659 29.4458 13.3046 32.132 13.1763C34.5707 13.0599 36.993 15.8893 36.993 15.8893C36.993 15.8893 32.4849 13.5394 29.0916 16.3769Z" fill="#A4B0A8"/>
<path fill-rule="evenodd" clip-rule="evenodd" d="M32.3711 13.5137C32.2583 13.5061 32.1454 13.5048 32.0366 13.5097C30.6121 13.5749 29.8915 14.4755 29.5292 15.4392C30.6942 14.7707 32.0485 14.4827 33.5677 14.5823C34.2612 14.6275 34.8979 14.7488 35.4354 14.8887C34.6198 14.2592 33.5005 13.5875 32.3711 13.5137ZM28.0141 17.445L28.5947 16.1528C28.5977 16.1404 28.6007 16.1255 28.604 16.1067C29.0161 14.0689 30.2234 12.9019 32.0036 12.8205C32.1395 12.8142 32.2794 12.8159 32.419 12.8253C34.8819 12.986 37.1291 15.4615 37.2241 15.5674L38.4296 16.9103L36.7931 16.1006C36.779 16.0938 35.3389 15.3894 33.5194 15.2708C31.815 15.1589 30.3478 15.584 29.1587 16.5317L28.0141 17.445Z" fill="#51545B"/>
<path fill-rule="evenodd" clip-rule="evenodd" d="M57.1056 17.8011C57.0939 17.7755 54.7226 14.6326 53.9395 14.5995C51.5023 14.4981 49.2042 17.3601 49.2042 17.3601C49.2042 17.3601 53.6034 14.9677 57.1056 17.8011Z" fill="#A4B0A8"/>
<path fill-rule="evenodd" clip-rule="evenodd" d="M53.9609 14.931C52.7144 14.8817 51.4816 15.6425 50.6186 16.343C51.4358 16.1187 52.4956 15.9356 53.6462 16.0104C54.3675 16.0577 55.0498 16.2014 55.6888 16.4411C54.9969 15.6882 54.244 14.9593 53.9609 14.931ZM47.7676 18.354L48.8895 17.029C48.9892 16.9112 51.3677 14.1396 53.9918 14.2437C55.0431 14.3117 57.5005 17.4916 57.5161 17.5231L58.1831 18.8691L56.9719 17.9406C56.0039 17.1979 54.8686 16.7794 53.5979 16.6968C51.316 16.5483 49.353 17.5405 49.3333 17.5506L47.7676 18.354Z" fill="#51545B"/>
<path fill-rule="evenodd" clip-rule="evenodd" d="M38.7888 29.5497C38.7763 29.9035 38.724 30.2549 38.6581 30.6037C38.5861 30.9504 38.5062 31.2988 38.3952 31.6387C38.3452 31.81 38.2831 31.9779 38.2213 32.1467L38.1296 32.4003L38.0205 32.648C37.9459 32.8124 37.8811 32.9814 37.7906 33.1394C37.7046 33.2995 37.6236 33.4618 37.5326 33.6207L37.2379 34.0848C37.144 34.2431 37.0186 34.3824 36.9099 34.532L36.7402 34.7526C36.68 34.8235 36.6148 34.8906 36.5504 34.9588C36.4201 35.0937 36.2993 35.237 36.1606 35.3639L35.7292 35.7339C35.589 35.861 35.4185 35.9557 35.2632 36.0666C35.1041 36.1735 34.9466 36.2799 34.7689 36.3591L34.2499 36.6142L34.4712 35.9657C34.5549 36.1139 34.6477 36.2699 34.7378 36.4206C34.8314 36.5717 34.9189 36.7266 35.014 36.8768L35.2958 37.3292L35.5879 37.7739C35.6807 37.9259 35.7883 38.0645 35.8886 38.2102L36.0402 38.4287C36.089 38.5026 36.1466 38.5663 36.2 38.6365L36.361 38.8444C36.4159 38.9113 36.4637 38.9908 36.525 39.0478L36.8803 39.4215L36.672 39.3807C36.9898 39.3362 37.3065 39.2862 37.6247 39.245C37.9433 39.2052 38.263 39.1662 38.5861 39.1405C38.291 39.2707 37.9925 39.388 37.6944 39.5028C37.3948 39.6183 37.094 39.7254 36.794 39.8357L36.6909 39.8743L36.5849 39.7949L36.1178 39.4462C36.0349 39.3895 35.9754 39.3196 35.9027 39.2567L35.6943 39.0625C35.6276 38.9963 35.5534 38.9323 35.492 38.8624L35.3026 38.6553C35.1807 38.5144 35.0492 38.3776 34.9356 38.2315L34.5886 37.7953L34.2606 37.3472C34.0454 37.0449 33.8435 36.7414 33.645 36.4199L33.4014 36.0244L33.8662 35.7709C34.0105 35.6923 34.1552 35.6176 34.3018 35.5432C34.4518 35.4759 34.5863 35.3815 34.7208 35.2875C34.8545 35.192 35.0026 35.1178 35.1254 35.006L35.5072 34.6915C35.6333 34.5855 35.7447 34.4609 35.8648 34.3462L36.0424 34.1711L36.2072 33.9818C36.314 33.8535 36.433 33.7347 36.5326 33.5983L36.8394 33.1964L37.1269 32.7769C37.2254 32.6384 37.3095 32.4899 37.4004 32.3456C37.4917 32.2003 37.5796 32.0532 37.6626 31.9031C37.7478 31.7536 37.8345 31.6048 37.9103 31.4501C37.9864 31.2952 38.0721 31.144 38.1463 30.9876C38.2228 30.8319 38.2993 30.6758 38.3687 30.5163C38.5194 30.2008 38.6558 29.8786 38.7888 29.5497Z" fill="#51545B"/>
<path fill-rule="evenodd" clip-rule="evenodd" d="M37.6937 28.8007C37.4715 32.1383 35.2094 34.7013 32.6405 34.5255C30.0717 34.3498 28.1696 31.5003 28.3907 28.1632C28.6129 24.8256 30.875 22.2617 33.4439 22.4379C36.0127 22.614 37.9155 25.4626 37.6937 28.8007Z" fill="#FFFFFE"/>
<path fill-rule="evenodd" clip-rule="evenodd" d="M31.1634 33.822C31.1634 33.822 31.0913 33.7901 30.9557 33.7302C30.8881 33.7 30.8059 33.6626 30.7121 33.606C30.6183 33.5517 30.5025 33.4926 30.3919 33.4075C30.1588 33.25 29.891 33.0319 29.6209 32.7419C29.3545 32.4516 29.0777 32.0948 28.8408 31.6655C28.6017 31.2391 28.3952 30.7461 28.2513 30.2023C28.1064 29.6595 28.0204 29.0682 28.0141 28.4529L28.0145 28.2214L28.0152 28.1046L28.0246 27.9742C28.0361 27.8283 28.0485 27.6814 28.0604 27.5341C28.1053 27.2253 28.1482 26.873 28.2401 26.5675C28.313 26.2498 28.425 25.9379 28.5423 25.6269L28.7515 25.1713C28.8218 25.0202 28.9129 24.877 28.9929 24.7288C29.3422 24.1529 29.7781 23.6175 30.3045 23.1832C30.8245 22.7459 31.4376 22.4125 32.0794 22.2298C32.2427 22.1952 32.4037 22.1598 32.5643 22.125C32.7257 22.0992 32.8897 22.0917 33.0485 22.0788C33.2076 22.0634 33.3675 22.085 33.5226 22.0883L33.6395 22.094L33.6679 22.096L33.6824 22.0963L33.7078 22.0983L33.7138 22.1003L33.765 22.108C33.8326 22.1185 33.8995 22.1295 33.966 22.1401C34.5891 22.255 35.0901 22.4962 35.516 22.779C35.9377 23.0634 36.2579 23.3937 36.5026 23.7041C36.7529 24.0122 36.9184 24.3119 37.0406 24.5599C37.1037 24.6837 37.1541 24.7955 37.1911 24.8966C37.2307 24.9954 37.2628 25.0803 37.2841 25.1504C37.3286 25.2895 37.3521 25.3638 37.3521 25.3638C37.3521 25.3638 37.3069 25.2999 37.2229 25.1804C37.1418 25.0601 37.0125 24.8898 36.8399 24.6852C36.5011 24.2773 35.9463 23.7354 35.1674 23.357C34.9702 23.2699 34.7643 23.1854 34.5424 23.1317C34.4326 23.1004 34.3205 23.078 34.2055 23.0564C34.0882 23.0351 33.9933 23.0276 33.8696 23.0151C33.8024 23.012 33.734 23.0087 33.666 23.0048L33.6144 23.0023L33.6081 23.0025C33.6428 23.0053 33.6144 23.0032 33.6208 23.0039L33.6092 23.0046L33.5872 23.0058L33.4964 23.0111C33.3757 23.0229 33.2532 23.0138 33.1325 23.04C33.0111 23.0653 32.8886 23.0803 32.7668 23.1084C32.6472 23.1436 32.5266 23.1798 32.404 23.2158C31.9255 23.3918 31.4716 23.676 31.0666 24.0365C30.6639 24.3998 30.309 24.8362 30.0243 25.318C29.7285 25.7951 29.5129 26.323 29.3571 26.8579L29.2977 27.0583C29.2794 27.1248 29.2697 27.1892 29.254 27.2546C29.2256 27.3876 29.1905 27.507 29.1673 27.6505C29.1472 27.7969 29.1274 27.9431 29.1072 28.0873L29.0997 28.1418L29.096 28.1693L29.0941 28.1826L29.093 28.1897C29.0967 28.1499 29.0934 28.1822 29.0941 28.1751L29.0863 28.2761L29.0698 28.4776C29.0358 29.0141 29.0575 29.5365 29.1285 30.0269C29.2006 30.5169 29.3123 30.9784 29.4628 31.3898C29.6186 31.799 29.7979 32.1639 29.9844 32.4751C30.1797 32.7794 30.3695 33.0401 30.5496 33.2352C30.7289 33.4294 30.8757 33.5823 30.993 33.6741C31.1047 33.7709 31.1634 33.822 31.1634 33.822Z" fill="#51545B"/>
<path fill-rule="evenodd" clip-rule="evenodd" d="M36.9808 28.6685C36.8401 30.8298 35.5258 32.4967 34.0449 32.3934C32.5641 32.289 31.4772 30.4544 31.6179 28.2939C31.7582 26.134 33.0729 24.4666 34.5534 24.57C36.0346 24.6734 37.1211 26.5085 36.9808 28.6685Z" fill="#51545B"/>
<path fill-rule="evenodd" clip-rule="evenodd" d="M36.2726 26.9393C36.239 27.4302 35.8116 27.8008 35.3163 27.7676C34.8217 27.7347 34.4477 27.3102 34.4809 26.8194C34.5141 26.3295 34.9419 25.9588 35.4373 25.9916C35.9318 26.025 36.3058 26.4494 36.2726 26.9393Z" fill="#FFFFFE"/>
<path fill-rule="evenodd" clip-rule="evenodd" d="M57.4473 29.5122C57.2255 32.8498 54.9635 35.4137 52.3943 35.2375C49.8256 35.0613 47.9229 32.2128 48.1443 28.8752C48.3668 25.5376 50.6289 22.9742 53.1973 23.1499C55.7664 23.3261 57.6684 26.1742 57.4473 29.5122Z" fill="#FFFFFE"/>
<path fill-rule="evenodd" clip-rule="evenodd" d="M47.7774 29.1464C47.7774 29.1464 47.7755 29.0557 47.771 28.8879C47.7706 28.8034 47.7687 28.6994 47.7676 28.578C47.7706 28.4558 47.7854 28.3132 47.7997 28.1542C47.8088 27.9922 47.8413 27.8185 47.8757 27.6287C47.9011 27.4348 47.962 27.2343 48.0251 27.0176C48.0781 26.797 48.1791 26.5775 48.266 26.3362C48.3156 26.2179 48.3791 26.1026 48.4389 25.981C48.4691 25.9206 48.5009 25.8597 48.5319 25.7979C48.5686 25.7391 48.6053 25.679 48.6423 25.6188C48.7849 25.3712 48.9672 25.1349 49.1574 24.888C49.2614 24.7718 49.3719 24.6569 49.4842 24.5395C49.5984 24.4247 49.7296 24.321 49.8552 24.209C50.3779 23.785 51.0314 23.4189 51.7851 23.2495C51.9716 23.2037 52.1675 23.1855 52.3615 23.1563C52.5574 23.1416 52.7567 23.1449 52.9564 23.1414L53.254 23.1711C53.344 23.1823 53.4223 23.184 53.5233 23.2031C53.729 23.2515 53.9544 23.2922 54.1469 23.3616C54.9256 23.6157 55.623 24.092 56.174 24.6747C56.7232 25.2625 57.1347 25.9531 57.4005 26.6732C57.6713 27.3918 57.7988 28.1392 57.8181 28.8562C57.8241 29.0359 57.829 29.2139 57.8139 29.3899C57.8007 29.5693 57.7995 29.7305 57.7708 29.9176C57.7284 30.2208 57.6634 30.5824 57.576 30.8953C57.4111 31.5266 57.1555 32.0942 56.8612 32.5783C56.5712 33.066 56.2327 33.4654 55.9025 33.7812C55.5769 34.1033 55.2407 34.3244 54.9623 34.4891C54.8209 34.5693 54.6957 34.6398 54.5773 34.6866C54.4623 34.7364 54.367 34.7814 54.2831 34.8065C54.1205 34.8607 54.0339 34.89 54.0339 34.89C54.0339 34.89 54.1095 34.8395 54.2517 34.7455C54.3924 34.6538 54.5898 34.5042 54.8197 34.2992C55.0474 34.0904 55.3057 33.8217 55.5538 33.4823C55.8015 33.1421 56.039 32.7334 56.2429 32.2684C56.4422 31.8011 56.5965 31.2733 56.6941 30.7073C56.7428 30.4226 56.7655 30.159 56.7799 29.8221C56.7746 29.5395 56.7894 29.2207 56.7485 28.9171C56.691 28.3013 56.5462 27.6781 56.306 27.0868C56.0625 26.4986 55.7236 25.9397 55.2868 25.482C54.8568 25.0188 54.3307 24.6603 53.7616 24.4492C53.6205 24.3922 53.4934 24.3735 53.3592 24.3265C53.2884 24.3072 53.1897 24.2981 53.1061 24.2836L52.9764 24.2638L52.9114 24.2541L52.8789 24.2488L52.8626 24.2464L52.855 24.2449C52.9223 24.2513 52.8694 24.2471 52.8826 24.248C52.7333 24.2466 52.5839 24.2345 52.4356 24.2378C52.2889 24.2562 52.1399 24.2533 51.9954 24.2808C51.4149 24.3763 50.8665 24.6039 50.3968 24.9151C49.9274 25.2271 49.5281 25.6075 49.2119 26.0043C49.1714 26.0532 49.131 26.1012 49.0913 26.1496C49.0557 26.2008 49.0209 26.2522 48.9865 26.3014C48.9173 26.4035 48.8485 26.5019 48.7823 26.5987C48.6673 26.8013 48.5372 26.9876 48.4544 27.1809C48.3595 27.3704 48.2751 27.5505 48.2108 27.7223C48.1405 27.8935 48.0747 28.0522 48.0342 28.199C47.9884 28.3467 47.9472 28.4781 47.9113 28.5929C47.8833 28.7118 47.8591 28.813 47.8398 28.895C47.7986 29.0584 47.7774 29.1464 47.7774 29.1464Z" fill="#51545B"/>
<path fill-rule="evenodd" clip-rule="evenodd" d="M55.2976 29.3815C55.1573 31.5418 53.8429 33.2092 52.3616 33.1054C50.881 33.002 49.7941 31.1672 49.9348 29.0064C50.0751 26.8464 51.3902 25.1786 52.8704 25.2821C54.3521 25.3859 55.4383 27.221 55.2976 29.3815Z" fill="#51545B"/>
<path fill-rule="evenodd" clip-rule="evenodd" d="M54.5894 27.6519C54.5566 28.1422 54.1287 28.5125 53.6333 28.4796C53.1386 28.4468 52.765 28.0227 52.7978 27.5319C52.831 27.0415 53.2592 26.6708 53.7543 26.7036C54.2494 26.737 54.6234 27.1615 54.5894 27.6519Z" fill="#FFFFFE"/>
<path fill-rule="evenodd" clip-rule="evenodd" d="M90.9686 35.6021C90.9686 35.6021 99.6256 36.7761 101.038 41.8556C102.412 46.7957 97.5268 52.3351 97.5268 52.3351L93.0711 48.9906C93.0711 48.9906 102.662 40.1836 88.7898 38.5163C88.2169 35.7287 90.9686 35.6021 90.9686 35.6021Z" fill="#A4B0A8"/>
<path fill-rule="evenodd" clip-rule="evenodd" d="M101.037 41.8556C99.6227 36.7761 90.9504 35.6021 90.9504 35.6021C90.9504 35.6021 89.7137 35.6631 89.0704 36.541C89.9143 36.669 97.7409 37.979 99.0796 42.7836C100.012 46.128 98.0703 49.745 96.7186 51.7343L97.5202 52.3351C97.5202 52.3351 102.414 46.7957 101.037 41.8556Z" fill="#7E9589"/>
<path fill-rule="evenodd" clip-rule="evenodd" d="M94.0085 48.9978L97.636 51.69C98.6496 50.4225 101.862 45.9956 100.764 42.092C99.5036 37.6118 91.8129 36.3504 91.1085 36.2435C90.9183 36.2624 90.1045 36.3753 89.6641 36.9373C89.4188 37.2518 89.3216 37.6739 89.3749 38.1943C93.6366 38.7583 96.1375 40.0846 96.8099 42.14C97.6985 44.855 95.0781 47.9013 94.0085 48.9978ZM97.7901 53.0471L92.4543 49.0885L92.8984 48.6844C92.9368 48.6492 96.738 45.1508 95.8505 42.4435C95.2884 40.7305 92.942 39.617 88.8753 39.133L88.5145 39.0904L88.4419 38.7396C88.2376 37.7572 88.3824 36.9448 88.8727 36.323C89.6608 35.3247 91.0437 35.2507 91.1022 35.2479L91.1476 35.2461L91.1934 35.2516C91.5616 35.3011 100.243 36.5238 101.735 41.8263C103.172 46.9358 98.306 52.4684 98.0979 52.7022L97.7901 53.0471Z" fill="#51545B"/>
<path fill-rule="evenodd" clip-rule="evenodd" d="M97.2606 56.2513C97.2606 56.2513 100.023 54.7441 98.0672 51.471C96.1114 48.1979 90.7135 45.116 87.6338 51.1352C89.363 53.4814 97.2606 56.2513 97.2606 56.2513Z" fill="#FFFFFE"/>
<path fill-rule="evenodd" clip-rule="evenodd" d="M98.0758 51.4699C96.3307 48.5123 91.8115 45.7143 88.7113 49.6376C91.646 47.7852 95.1915 50.207 96.6907 52.7465C97.5879 54.2661 97.4798 55.4053 97.1073 56.189C97.2169 56.229 97.279 56.2513 97.279 56.2513C97.279 56.2513 100.008 54.7438 98.0758 51.4699Z" fill="#CED1D7"/>
<path fill-rule="evenodd" clip-rule="evenodd" d="M88.1122 51.084C89.7007 52.7397 94.8421 54.7609 97.0516 55.5275C97.3263 55.3317 97.8511 54.879 98.044 54.1727C98.2398 53.4533 98.0551 52.6292 97.4928 51.7224C96.4503 50.0387 94.2694 48.3347 92.1194 48.3347C90.5064 48.3347 89.1595 49.259 88.1122 51.084ZM97.1624 56.6073L96.9535 56.5365C96.6257 56.4257 88.9027 53.7919 87.1043 51.4386L86.9155 51.1916L87.06 50.918C88.6243 47.9695 90.6751 47.3508 92.1194 47.3508C94.7593 47.3508 97.2014 49.3531 98.3543 51.2123C99.0667 52.3633 99.2879 53.45 99.0114 54.4419C98.6267 55.8226 97.4081 56.4773 97.3571 56.5045L97.1624 56.6073Z" fill="#51545B"/>
<path fill-rule="evenodd" clip-rule="evenodd" d="M80.4099 61.1347C80.4099 61.1347 78.8699 63.7086 82.5642 65.044C86.2595 66.3809 85.5886 68.953 87.8361 66.8412C90.084 64.7298 87.5294 61.9489 85.4727 61.2262C83.4168 60.5038 80.4099 61.1347 80.4099 61.1347Z" fill="#CED1D7"/>
<path fill-rule="evenodd" clip-rule="evenodd" d="M80.53 61.7001C80.4215 61.9589 80.2743 62.4603 80.4654 62.9801C80.7045 63.6328 81.4004 64.1607 82.5334 64.5495C84.2244 65.1318 85.0834 65.9595 85.6512 66.5069C85.9467 66.7919 86.1807 67.0166 86.3423 67.0177C86.4751 67.0177 86.7577 66.9059 87.3521 66.3744C87.9491 65.8407 88.1716 65.2606 88.0321 64.5999C87.7761 63.3903 86.3334 62.212 85.142 61.8141C84.5332 61.6101 83.7606 61.5066 82.846 61.5066C81.849 61.5066 80.9439 61.6326 80.53 61.7001ZM86.3423 68C85.7726 68 85.3929 67.633 84.952 67.2079C84.4174 66.6931 83.685 65.9867 82.2029 65.4777C80.765 64.9829 79.8625 64.2503 79.5197 63.2992C79.0895 62.1034 79.7411 61.0459 79.7684 61.002L79.8824 60.8209L80.0942 60.778C80.1462 60.7686 81.3863 60.5236 82.846 60.5236C83.8702 60.5236 84.7509 60.6452 85.4641 60.884C86.926 61.3723 88.6653 62.7707 89.0103 64.4003C89.1575 65.0991 89.1058 66.1344 88.0236 67.1015C87.3101 67.7397 86.8227 68 86.3423 68Z" fill="#51545B"/>
<path fill-rule="evenodd" clip-rule="evenodd" d="M96.6166 54.0294L90.4661 50.555C90.4661 50.555 86.6784 51.3617 83.8108 52.1802C81.546 52.8267 78.5332 53.2924 79.079 56.7544C79.6244 60.2167 78.9753 63.5232 83.4877 63.5232C86.2151 66.1554 88.2829 65.4125 88.2829 65.4125C88.2829 65.4125 92.5675 70.2844 94.4484 64.3237C98.0875 63.5133 99.254 57.5039 96.6166 54.0294Z" fill="#FFFFFE"/>
<path fill-rule="evenodd" clip-rule="evenodd" d="M96.6526 54.1152C97.8865 57.5412 96.5828 61.8993 93.5344 62.5789C91.6643 68.5187 87.4049 63.664 87.4049 63.664C87.4049 63.664 85.3486 64.4043 82.6373 61.7817C81.2271 61.7817 80.3247 61.4558 79.7324 60.903C80.1252 62.4638 81.0135 63.5369 83.5724 63.5369C86.284 66.1595 88.3399 65.4193 88.3399 65.4193C88.3399 65.4193 92.5997 70.2735 94.4698 64.3345C98.0745 63.53 99.2388 57.5825 96.6526 54.1152Z" fill="#CED1D7"/>
<path fill-rule="evenodd" clip-rule="evenodd" d="M92.3028 64.5867C92.3028 64.5867 92.3661 64.5642 92.4768 64.5238C92.5837 64.481 92.7304 64.4283 92.8901 64.3493C92.9711 64.3169 93.0533 64.2665 93.1398 64.2256C93.2232 64.1749 93.3123 64.1329 93.3957 64.0737C93.4833 64.0241 93.5647 63.9596 93.6496 63.9C93.7341 63.8397 93.8117 63.7672 93.895 63.7027C93.9695 63.6267 94.0525 63.5603 94.1262 63.4832C94.1941 63.4007 94.2778 63.3328 94.3438 63.2511C94.4102 63.1694 94.4797 63.0916 94.5491 63.0179C94.6089 62.9381 94.6699 62.8633 94.7289 62.7927C94.7915 62.7251 94.8486 62.6591 94.8937 62.5972C94.9392 62.5358 94.9871 62.4839 95.0242 62.44C95.101 62.3529 95.155 62.3037 95.155 62.3037C95.155 62.3037 95.1669 62.3709 95.1723 62.4888C95.1739 62.548 95.1789 62.6201 95.1738 62.7014C95.1727 62.743 95.1716 62.7866 95.17 62.8327C95.1635 62.8785 95.1534 62.9247 95.1446 62.9751C95.1249 63.0736 95.0998 63.1813 95.0685 63.2939C95.0269 63.4019 94.9771 63.5164 94.9215 63.6336C94.8656 63.75 94.7822 63.8592 94.703 63.9722C94.622 64.0852 94.5129 64.1806 94.4141 64.2829C94.2987 64.3695 94.1887 64.4631 94.0617 64.5299C93.9371 64.599 93.8117 64.6608 93.6816 64.699C93.5554 64.7467 93.4246 64.7635 93.305 64.7841C93.1823 64.7921 93.068 64.8024 92.9619 64.7902C92.8573 64.7845 92.762 64.7654 92.679 64.7455C92.5976 64.7276 92.5274 64.6997 92.4711 64.6776C92.3587 64.6306 92.3028 64.5867 92.3028 64.5867Z" fill="#51545B"/>
<path fill-rule="evenodd" clip-rule="evenodd" d="M87.7385 65.5078C87.7385 65.5078 87.7112 65.2711 87.6879 64.8904C87.6761 64.7029 87.6562 64.4839 87.6551 64.2544C87.6506 64.0249 87.6447 63.7801 87.6392 63.5361C87.6384 63.4132 87.6303 63.2925 87.6355 63.1721C87.6385 63.0521 87.6414 62.9339 87.644 62.8193C87.6492 62.5916 87.6543 62.3791 87.6587 62.1968C87.6672 61.8338 87.6739 61.5916 87.6739 61.5916C87.6739 61.5916 87.7296 61.8273 87.8137 62.1812C87.8558 62.3574 87.9049 62.5633 87.9577 62.7841C87.9839 62.8936 88.0112 63.0075 88.0385 63.1224C88.0636 63.2381 88.1027 63.353 88.1345 63.4687C88.2009 63.6993 88.2673 63.9299 88.3293 64.146C88.388 64.3643 88.4585 64.5572 88.5138 64.7236C88.6208 65.0524 88.7113 65.2827 88.7113 65.2827L87.7385 65.5078Z" fill="#51545B"/>
<path fill-rule="evenodd" clip-rule="evenodd" d="M82.9823 63.7278C82.9823 63.7278 82.9796 63.4837 82.9752 63.1165C82.974 62.7489 82.9594 62.2637 82.9669 61.7689C82.9748 60.7908 82.9831 59.8115 82.9831 59.8115C82.9831 59.8115 83.2393 60.7572 83.4974 61.7032C83.6212 62.1716 83.7691 62.6444 83.8699 62.9974C83.9731 63.3512 84.0423 63.5867 84.0423 63.5867L82.9823 63.7278Z" fill="#51545B"/>
<path fill-rule="evenodd" clip-rule="evenodd" d="M97.2286 53.8743C97.2286 53.8743 97.7559 56.2115 97.7522 58.4728C97.7664 58.9321 97.7405 59.3936 97.6713 59.8489C97.6672 59.885 97.662 59.9212 97.6563 59.9577C97.6556 59.9661 97.6545 59.9746 97.6526 59.9827C97.5725 60.5405 97.4385 61.0547 97.2286 61.4787C97.2282 61.4805 97.2271 61.4816 97.2256 61.4835C96.6548 62.8699 95.706 63.7735 94.5353 64.0345L94.2501 64.0983L94.1636 64.3729C93.676 65.9216 93.0015 66.7949 92.1598 66.9689C90.8868 67.2329 89.3355 65.8457 88.8452 65.2905L88.6165 65.0291L88.2875 65.1478C88.2707 65.1541 86.4454 65.7199 84.0058 63.361L83.8576 63.2176H83.6507C80.3855 63.2176 80.2107 61.4127 79.945 58.6807C79.887 58.0831 79.8275 57.466 79.7275 56.8356C79.3753 54.5939 80.6007 53.8304 82.6311 53.2103H82.6304L91.1103 50.555C91.0729 50.5635 86.6943 51.0165 83.8333 51.8338C83.6357 51.8906 83.4321 51.9463 83.2247 52.0023C81.0869 52.5818 78.1582 53.3748 78.7267 56.9882C78.8218 57.5898 78.8802 58.193 78.9367 58.7758C79.1916 61.4057 79.4558 64.123 83.4441 64.2133C85.6878 66.3054 87.5472 66.2877 88.2905 66.1667C88.8216 66.7031 90.2682 68.0008 91.827 68C92.0056 68 92.1848 67.9834 92.3656 67.9462C93.5378 67.7044 94.4384 66.6917 95.0439 64.9336C96.4624 64.5078 97.6227 63.3219 98.2537 61.6357C99.2145 59.0714 98.8031 55.952 97.2286 53.8743Z" fill="#51545B"/>
</svg>
